<?xml version="1.0" encoding="utf-8"?>
<!-- Generator: Adobe Illustrator 25.2.1, SVG Export Plug-In . SVG Version: 6.00 Build 0)  -->
<svg version="1.1" id="Layer_1" xmlns="http://www.w3.org/2000/svg" xmlns:xlink="http://www.w3.org/1999/xlink" x="0px" y="0px"
	 viewBox="0 0 252 81" style="enable-background:new 0 0 252 81;" xml:space="preserve">
<style type="text/css">
	.st0{fill:#5B6670;}
	.st1{fill:#93D500;}
	.st2{fill:#B31983;}
	.st3{fill:#00C1DE;}
	.st4{fill:#B46C8E;}
	.st5{fill:#59C4BF;}
	.st6{fill:#70AACA;}
	.st7{fill:#6CA6C0;}
	.st8{fill:#FFFFFF;}
	.st9{fill:url(#SVGID_1_);}
	.st10{fill:url(#SVGID_2_);}
	.st11{fill:url(#SVGID_3_);}
	.st12{fill:url(#SVGID_4_);}
	.st13{fill:url(#SVGID_5_);}
	.st14{fill:url(#SVGID_6_);}
	.st15{fill:url(#SVGID_7_);}
	.st16{fill:url(#SVGID_8_);}
	.st17{fill:url(#SVGID_9_);}
	.st18{fill:url(#SVGID_10_);}
	.st19{fill:url(#SVGID_11_);}
	.st20{fill:url(#SVGID_12_);}
	.st21{fill:url(#SVGID_13_);}
	.st22{fill:url(#SVGID_14_);}
	.st23{fill:url(#SVGID_15_);}
	.st24{fill:url(#SVGID_16_);}
	.st25{fill:url(#SVGID_17_);}
	.st26{fill:url(#SVGID_18_);}
	.st27{fill:url(#SVGID_19_);}
	.st28{fill:url(#SVGID_20_);}
	.st29{fill:url(#SVGID_21_);}
	.st30{fill:url(#SVGID_22_);}
	.st31{fill:url(#SVGID_23_);}
	.st32{fill:url(#SVGID_24_);}
</style>
<g>
	<path class="st0" d="M60.18,28.81c0.95,0.37,1.92,0.94,2.9,1.72l-1.2,1.27c-0.82-0.64-1.62-1.11-2.4-1.4s-1.67-0.43-2.67-0.43
		c-1.31,0-2.53,0.34-3.65,1.03c-1.12,0.69-2.03,1.78-2.73,3.28c-0.7,1.5-1.05,3.39-1.05,5.68c0,3.4,0.64,5.94,1.93,7.63
		c1.29,1.69,3.09,2.53,5.4,2.53c1.78,0,3.38-0.4,4.8-1.2v-8.1h-4.47l-0.23-1.67h6.66v10.8c-2.18,1.24-4.43,1.87-6.76,1.87
		c-2.91,0-5.21-1.01-6.9-3.03c-1.69-2.02-2.53-4.96-2.53-8.83c0-2.51,0.44-4.65,1.32-6.41c0.88-1.77,2.04-3.09,3.5-3.97
		c1.46-0.88,3.03-1.32,4.72-1.32C58.11,28.26,59.23,28.44,60.18,28.81z"/>
	<path class="st0" d="M66.86,50.99c-0.54-0.56-0.82-1.38-0.82-2.47V26.93l1.93-0.23v21.76c0,1.13,0.47,1.7,1.4,1.7
		c0.47,0,0.87-0.08,1.2-0.23l0.53,1.43c-0.62,0.31-1.29,0.47-2,0.47C68.16,51.82,67.41,51.54,66.86,50.99z"/>
	<path class="st0" d="M83.09,36.04c1.3,1.59,1.95,3.8,1.95,6.65c0,2.82-0.66,5.05-1.98,6.68c-1.32,1.63-3.13,2.45-5.41,2.45
		c-2.31,0-4.12-0.8-5.41-2.42s-1.95-3.83-1.95-6.65c0-1.84,0.3-3.45,0.9-4.83c0.6-1.38,1.46-2.43,2.57-3.17
		c1.11-0.73,2.42-1.1,3.93-1.1C79.99,33.66,81.79,34.45,83.09,36.04z M73.75,37.19c-0.93,1.27-1.4,3.12-1.4,5.56
		c0,2.42,0.46,4.27,1.38,5.53c0.92,1.27,2.23,1.9,3.91,1.9c1.69,0,3-0.63,3.95-1.9c0.94-1.27,1.42-3.13,1.42-5.6
		c0-2.42-0.46-4.26-1.38-5.52c-0.92-1.25-2.24-1.88-3.95-1.88C75.99,35.29,74.68,35.92,73.75,37.19z"/>
	<path class="st0" d="M98.4,35.99c1.11,1.56,1.67,3.78,1.67,6.66c0,2.82-0.58,5.05-1.75,6.7c-1.17,1.64-2.79,2.47-4.88,2.47
		c-1.04,0-1.99-0.23-2.85-0.7c-0.86-0.47-1.57-1.09-2.15-1.87l-0.2,2.2h-1.7V26.93l1.93-0.23v9.76c1.38-1.87,3.12-2.8,5.23-2.8
		C95.73,33.66,97.29,34.44,98.4,35.99z M96.72,48.3c0.85-1.28,1.28-3.16,1.28-5.65c0-4.93-1.57-7.4-4.7-7.4
		c-1.04,0-1.94,0.26-2.7,0.78c-0.75,0.52-1.47,1.26-2.13,2.22v9.16c0.56,0.87,1.22,1.55,2,2.05s1.64,0.75,2.6,0.75
		C94.65,50.22,95.87,49.58,96.72,48.3z"/>
	<path class="st0" d="M115.2,43.49h-11.63c0.11,2.27,0.65,3.95,1.62,5.05c0.97,1.1,2.24,1.65,3.81,1.65c0.91,0,1.72-0.14,2.42-0.42
		c0.7-0.28,1.46-0.72,2.28-1.32l0.9,1.23c-0.87,0.71-1.76,1.24-2.67,1.6c-0.91,0.36-1.92,0.53-3.03,0.53
		c-2.31,0-4.12-0.79-5.43-2.37c-1.31-1.58-1.97-3.77-1.97-6.56c0-1.84,0.28-3.46,0.85-4.85c0.57-1.39,1.38-2.47,2.43-3.23
		c1.05-0.77,2.28-1.15,3.68-1.15c2.22,0,3.91,0.75,5.07,2.25c1.15,1.5,1.73,3.56,1.73,6.18C115.26,42.58,115.24,43.04,115.2,43.49z
		 M113.36,41.49c0-1.95-0.41-3.48-1.22-4.58c-0.81-1.1-2.02-1.65-3.62-1.65c-1.44,0-2.61,0.56-3.5,1.67
		c-0.89,1.11-1.38,2.8-1.47,5.07h9.8V41.49z"/>
	<path class="st0" d="M132.29,51.45h-2.63L118.9,30.83c0.18,2.78,0.27,5.4,0.27,7.86v12.76h-1.9V28.63h2.57l10.83,20.63
		c-0.18-2.58-0.27-4.83-0.27-6.76V28.63h1.9V51.45z"/>
	<path class="st0" d="M147.82,43.49h-11.63c0.11,2.27,0.65,3.95,1.62,5.05c0.97,1.1,2.24,1.65,3.81,1.65c0.91,0,1.72-0.14,2.42-0.42
		c0.7-0.28,1.46-0.72,2.28-1.32l0.9,1.23c-0.87,0.71-1.76,1.24-2.67,1.6c-0.91,0.36-1.92,0.53-3.03,0.53
		c-2.31,0-4.12-0.79-5.43-2.37c-1.31-1.58-1.97-3.77-1.97-6.56c0-1.84,0.28-3.46,0.85-4.85c0.57-1.39,1.38-2.47,2.43-3.23
		c1.05-0.77,2.28-1.15,3.68-1.15c2.22,0,3.91,0.75,5.07,2.25c1.15,1.5,1.73,3.56,1.73,6.18C147.88,42.58,147.86,43.04,147.82,43.49z
		 M145.99,41.49c0-1.95-0.41-3.48-1.22-4.58c-0.81-1.1-2.02-1.65-3.62-1.65c-1.44,0-2.61,0.56-3.5,1.67
		c-0.89,1.11-1.38,2.8-1.47,5.07h9.8V41.49z"/>
	<path class="st0" d="M169.61,34.03l-4.27,17.43h-2.6l-3.86-15.63l-3.93,15.63h-2.57l-4.36-17.43h2l3.73,15.93l4.07-15.93h2.2
		l4,15.96l3.7-15.96H169.61z"/>
	<path class="st0" d="M178.87,34.14c0.89,0.32,1.76,0.81,2.6,1.45l-0.9,1.27c-0.8-0.56-1.56-0.96-2.27-1.22
		c-0.71-0.25-1.49-0.38-2.33-0.38c-1.16,0-2.09,0.27-2.8,0.8c-0.71,0.53-1.07,1.25-1.07,2.13c0,0.84,0.31,1.5,0.92,1.97
		c0.61,0.47,1.72,0.91,3.32,1.33c1.98,0.51,3.4,1.16,4.28,1.93c0.88,0.78,1.32,1.89,1.32,3.33c0,1.56-0.6,2.79-1.8,3.7
		c-1.2,0.91-2.7,1.37-4.5,1.37c-1.33,0-2.5-0.2-3.5-0.58c-1-0.39-1.91-0.94-2.73-1.65l1.07-1.23c0.78,0.62,1.57,1.08,2.38,1.38
		c0.81,0.3,1.73,0.45,2.75,0.45c1.29,0,2.33-0.3,3.12-0.88c0.79-0.59,1.18-1.4,1.18-2.45c0-0.71-0.13-1.29-0.4-1.73
		c-0.27-0.44-0.72-0.83-1.37-1.15c-0.65-0.32-1.59-0.65-2.83-0.98c-1.84-0.49-3.17-1.1-3.98-1.83c-0.81-0.73-1.22-1.71-1.22-2.93
		c0-0.87,0.25-1.65,0.77-2.35c0.51-0.7,1.2-1.24,2.08-1.63c0.88-0.39,1.86-0.58,2.95-0.58C177,33.66,177.98,33.82,178.87,34.14z"/>
	<path class="st0" d="M204,34.03l-4.27,17.43h-2.6l-3.86-15.63l-3.93,15.63h-2.57l-4.36-17.43h2l3.73,15.93l4.07-15.93h2.2l4,15.96
		l3.7-15.96H204z"/>
	<path class="st0" d="M207.36,26.76c0.27,0.27,0.4,0.6,0.4,1s-0.13,0.73-0.4,1c-0.27,0.27-0.62,0.4-1.07,0.4
		c-0.42,0-0.77-0.13-1.03-0.4c-0.27-0.27-0.4-0.6-0.4-1s0.13-0.73,0.4-1c0.27-0.27,0.61-0.4,1.03-0.4
		C206.74,26.36,207.1,26.5,207.36,26.76z M207.3,34.03v17.43h-1.93V34.03H207.3z"/>
	<path class="st0" d="M218.86,33.86l-0.37,1.83c-0.49-0.13-1-0.2-1.53-0.2c-1.18,0-2.13,0.43-2.85,1.28
		c-0.72,0.85-1.33,2.19-1.82,4.02v10.66h-1.93V34.03h1.67l0.17,3.9c0.47-1.44,1.1-2.52,1.92-3.22c0.81-0.7,1.82-1.05,3.02-1.05
		C217.81,33.66,218.39,33.73,218.86,33.86z"/>
	<path class="st0" d="M231.42,43.49h-11.63c0.11,2.27,0.65,3.95,1.62,5.05c0.97,1.1,2.24,1.65,3.81,1.65c0.91,0,1.72-0.14,2.42-0.42
		c0.7-0.28,1.46-0.72,2.28-1.32l0.9,1.23c-0.87,0.71-1.76,1.24-2.67,1.6c-0.91,0.36-1.92,0.53-3.03,0.53
		c-2.31,0-4.12-0.79-5.43-2.37c-1.31-1.58-1.97-3.77-1.97-6.56c0-1.84,0.28-3.46,0.85-4.85c0.57-1.39,1.38-2.47,2.43-3.23
		c1.05-0.77,2.28-1.15,3.68-1.15c2.22,0,3.91,0.75,5.07,2.25c1.15,1.5,1.73,3.56,1.73,6.18C231.49,42.58,231.46,43.04,231.42,43.49z
		 M229.59,41.49c0-1.95-0.41-3.48-1.22-4.58c-0.81-1.1-2.02-1.65-3.62-1.65c-1.44,0-2.61,0.56-3.5,1.67
		c-0.89,1.11-1.38,2.8-1.47,5.07h9.8V41.49z"/>
</g>
<g>
	<g>
		<path class="st1" d="M34.16,17c0.88,2.26,0.67,4.68-1.27,7.06c2.61,1.64,3.57,3.86,3.47,6.28c6.42,1,15.78-5.28,18.84-9.95
			C50.8,16.95,39.92,14,34.16,17z"/>
		<path class="st2" d="M30.87,25.71c-2.72,1.44-5.13,1.16-7.18-0.14c-4.07,5.06-3.32,16.31-0.8,21.29
			c5.18-2.08,13.18-10.02,13.46-16.51C33.95,29.97,31.96,28.59,30.87,25.71z"/>
		<path class="st3" d="M30.45,23.14c0.11-3.07,1.56-5.02,3.71-6.14C31.82,10.94,21.7,5.97,16.13,5.66
			c-0.79,5.52,2.09,16.42,7.57,19.91C25.22,23.68,27.41,22.65,30.45,23.14z"/>
	</g>
	<g>
		<path class="st4" d="M32.89,24.06L32.89,24.06c-0.55,0.67-1.24,1.24-2.01,1.65l0,0v0c1.09,2.88,3.08,4.26,5.48,4.64
			C36.46,27.92,35.49,25.69,32.89,24.06z"/>
		<path class="st5" d="M34.16,17c-2.15,1.12-3.6,3.07-3.71,6.14c0.86,0.14,1.7,0.46,2.44,0.92C34.83,21.68,35.04,19.26,34.16,17z"/>
		<path class="st6" d="M30.45,23.14L30.45,23.14c-3.04-0.49-5.23,0.54-6.75,2.43c2.05,1.3,4.46,1.58,7.18,0.14
			C30.56,24.89,30.42,24.01,30.45,23.14L30.45,23.14z"/>
		<path class="st3" d="M32.89,24.06L32.89,24.06c-0.74-0.46-1.57-0.78-2.44-0.92v0C31.31,23.28,32.15,23.6,32.89,24.06z"/>
		<path class="st7" d="M30.87,25.71c0.77-0.41,1.46-0.97,2.01-1.65c-0.74-0.46-1.57-0.78-2.44-0.92
			C30.42,24.01,30.56,24.89,30.87,25.71z"/>
	</g>
</g>
<g>
	<g>
		<path class="st0" d="M55.58,61.11c0.63,0.88,0.94,2.14,0.94,3.78c0,1.6-0.33,2.86-0.99,3.8c-0.66,0.93-1.58,1.4-2.77,1.4
			c-0.59,0-1.13-0.13-1.62-0.4c-0.48-0.26-0.89-0.62-1.22-1.06l-0.11,1.25h-0.96v-13.9l1.1-0.13v5.53c0.78-1.06,1.77-1.59,2.96-1.59
			C54.06,59.79,54.95,60.23,55.58,61.11z M54.62,68.08c0.48-0.72,0.73-1.79,0.73-3.2c0-2.79-0.89-4.19-2.66-4.19
			c-0.59,0-1.1,0.15-1.53,0.44c-0.43,0.3-0.83,0.71-1.21,1.25v5.19c0.31,0.49,0.69,0.88,1.13,1.16c0.44,0.28,0.93,0.43,1.47,0.43
			C53.45,69.17,54.14,68.81,54.62,68.08z"/>
		<path class="st0" d="M61.66,69.91c-0.26,0.77-0.55,1.4-0.87,1.89c-0.32,0.49-0.72,0.9-1.23,1.22s-1.15,0.56-1.94,0.71l-0.11-0.85
			c0.65-0.16,1.17-0.37,1.54-0.6c0.37-0.24,0.67-0.54,0.89-0.9c0.22-0.36,0.44-0.86,0.67-1.5h-0.38l-3.44-9.88h1.19l2.98,9.06
			l2.93-9.06h1.15L61.66,69.91z"/>
	</g>
	<g>
		<path class="st0" d="M76.07,60.48c0.51,0.54,0.77,1.29,0.77,2.23v7.15H75.1v-6.91c0-0.71-0.13-1.2-0.4-1.5
			c-0.26-0.29-0.66-0.43-1.17-0.43c-0.53,0-1,0.15-1.4,0.45c-0.4,0.3-0.78,0.74-1.14,1.31v7.08h-1.74v-9.98h1.5l0.15,1.48
			c0.35-0.53,0.79-0.95,1.32-1.25c0.52-0.3,1.1-0.45,1.73-0.45C74.85,59.67,75.56,59.94,76.07,60.48z"/>
		<path class="st0" d="M85.65,61.07c0.78,0.93,1.16,2.2,1.16,3.8c0,1.04-0.18,1.95-0.53,2.74c-0.35,0.79-0.87,1.4-1.53,1.84
			c-0.67,0.43-1.46,0.65-2.38,0.65c-1.4,0-2.49-0.47-3.27-1.4c-0.78-0.93-1.17-2.2-1.17-3.8c0-1.03,0.18-1.95,0.53-2.73
			c0.35-0.79,0.87-1.4,1.53-1.84c0.67-0.44,1.47-0.65,2.4-0.65C83.79,59.67,84.88,60.13,85.65,61.07z M79.79,64.89
			c0,2.54,0.86,3.8,2.57,3.8s2.57-1.27,2.57-3.82c0-2.54-0.85-3.8-2.56-3.8C80.66,61.07,79.79,62.34,79.79,64.89z"/>
		<path class="st0" d="M93.59,69.42c-0.66,0.45-1.4,0.68-2.23,0.68c-0.85,0-1.5-0.24-1.98-0.73c-0.47-0.49-0.71-1.19-0.71-2.11
			v-6.02h-1.74v-1.34h1.74v-2.25l1.74-0.21v2.46h2.37l-0.19,1.34h-2.18v5.94c0,0.52,0.09,0.89,0.27,1.13
			c0.18,0.23,0.49,0.35,0.92,0.35c0.39,0,0.83-0.13,1.32-0.4L93.59,69.42z"/>
		<path class="st0" d="M96.18,55.45c0.23,0.23,0.34,0.51,0.34,0.85c0,0.34-0.11,0.62-0.34,0.84c-0.23,0.22-0.52,0.33-0.89,0.33
			c-0.35,0-0.64-0.11-0.87-0.33c-0.23-0.22-0.34-0.5-0.34-0.84c0-0.34,0.11-0.63,0.34-0.85c0.23-0.23,0.52-0.34,0.87-0.34
			C95.66,55.11,95.96,55.22,96.18,55.45z M96.18,59.89v9.98h-1.74v-9.98H96.18z"/>
		<path class="st0" d="M103.71,55.84c0.43,0.11,0.87,0.28,1.32,0.51l-0.61,1.21c-0.66-0.32-1.36-0.47-2.1-0.47
			c-0.67,0-1.13,0.12-1.38,0.36c-0.25,0.24-0.38,0.61-0.38,1.12v1.32h5.56v9.98h-1.74v-8.63h-3.82v8.63h-1.74v-8.63h-1.59v-1.34
			h1.59v-1.31c0-0.88,0.28-1.59,0.85-2.12s1.43-0.79,2.59-0.79C102.79,55.67,103.27,55.73,103.71,55.84z"/>
		<path class="st0" d="M115.32,65.48h-6.36c0.08,1.1,0.35,1.91,0.83,2.42c0.48,0.52,1.1,0.78,1.86,0.78c0.48,0,0.92-0.07,1.32-0.21
			c0.4-0.14,0.83-0.36,1.27-0.66l0.76,1.04c-1.06,0.83-2.22,1.25-3.48,1.25c-1.39,0-2.47-0.45-3.25-1.36
			c-0.78-0.91-1.16-2.16-1.16-3.75c0-1.04,0.17-1.95,0.5-2.75c0.33-0.8,0.81-1.43,1.44-1.88c0.62-0.45,1.36-0.68,2.2-0.68
			c1.33,0,2.34,0.43,3.05,1.31c0.71,0.87,1.06,2.07,1.06,3.62C115.36,64.88,115.35,65.18,115.32,65.48z M113.64,64.08
			c0-0.98-0.2-1.73-0.59-2.25s-0.98-0.78-1.76-0.78c-1.43,0-2.2,1.05-2.33,3.14h4.67V64.08z"/>
		<path class="st0" d="M124.73,55.88v13.99h-1.53l-0.17-1.38c-0.33,0.51-0.74,0.9-1.23,1.18c-0.49,0.28-1.04,0.43-1.65,0.43
			c-1.19,0-2.11-0.47-2.77-1.4c-0.66-0.93-0.99-2.19-0.99-3.77c0-1.02,0.16-1.93,0.47-2.73s0.77-1.42,1.36-1.86
			c0.59-0.45,1.29-0.67,2.08-0.67c1.02,0,1.92,0.41,2.69,1.23v-5.22L124.73,55.88z M121.89,68.35c0.38-0.25,0.74-0.62,1.1-1.11
			v-4.88c-0.33-0.43-0.68-0.75-1.05-0.98c-0.37-0.22-0.79-0.33-1.26-0.33c-0.77,0-1.37,0.32-1.79,0.96
			c-0.42,0.64-0.63,1.6-0.63,2.88c0,1.29,0.2,2.25,0.59,2.88c0.39,0.63,0.95,0.95,1.69,0.95C121.05,68.71,121.51,68.59,121.89,68.35
			z"/>
	</g>
</g>
<g>
	
		<radialGradient id="SVGID_1_" cx="-958.2306" cy="-111.4005" r="38.4228" gradientTransform="matrix(0.7666 -0.0671 0.0671 0.7666 776.4106 66.7709)" gradientUnits="userSpaceOnUse">
		<stop  offset="0" style="stop-color:#95C93D"/>
		<stop  offset="0.5149" style="stop-color:#93C73D"/>
		<stop  offset="0.7003" style="stop-color:#8FC13B"/>
		<stop  offset="0.8325" style="stop-color:#89BA38"/>
		<stop  offset="0.9387" style="stop-color:#81B035"/>
		<stop  offset="1" style="stop-color:#7AA732"/>
	</radialGradient>
	<path class="st9" d="M34.16,17c0.88,2.26,0.67,4.68-1.27,7.06c2.61,1.64,3.57,3.86,3.47,6.28c6.42,1,15.78-5.28,18.84-9.95
		C50.8,16.95,39.92,14,34.16,17z"/>
	
		<radialGradient id="SVGID_2_" cx="3207.905" cy="-2129.7815" r="38.4228" gradientTransform="matrix(-0.4414 -0.6303 0.6303 -0.4414 2806.7539 1093.101)" gradientUnits="userSpaceOnUse">
		<stop  offset="0" style="stop-color:#3DBCDB"/>
		<stop  offset="0.5149" style="stop-color:#3DBAD9"/>
		<stop  offset="0.7003" style="stop-color:#3CB5D3"/>
		<stop  offset="0.8325" style="stop-color:#3AAFCC"/>
		<stop  offset="0.9387" style="stop-color:#37A5C1"/>
		<stop  offset="1" style="stop-color:#349EB8"/>
	</radialGradient>
	<path class="st10" d="M30.45,23.14c0.11-3.08,1.56-5.02,3.71-6.14C31.82,10.94,21.7,5.97,16.13,5.66
		c-0.79,5.52,2.09,16.42,7.57,19.91C25.22,23.68,27.42,22.65,30.45,23.14z"/>
	
		<radialGradient id="SVGID_3_" cx="-958.2306" cy="-111.4005" r="38.4228" gradientTransform="matrix(0.7666 -0.0671 0.0671 0.7666 776.4106 66.7709)" gradientUnits="userSpaceOnUse">
		<stop  offset="0" style="stop-color:#93D500"/>
		<stop  offset="0.014" style="stop-color:#93D502"/>
		<stop  offset="0.019" style="stop-color:#93D309"/>
		<stop  offset="0.0226" style="stop-color:#94D114"/>
		<stop  offset="0.0255" style="stop-color:#94CE25"/>
		<stop  offset="0.028" style="stop-color:#95C93B"/>
		<stop  offset="0.0282" style="stop-color:#95C93D"/>
		<stop  offset="0.5199" style="stop-color:#93C63C"/>
		<stop  offset="0.7029" style="stop-color:#8FC13B"/>
		<stop  offset="0.8343" style="stop-color:#89BA38"/>
		<stop  offset="0.9404" style="stop-color:#81B035"/>
		<stop  offset="1" style="stop-color:#7AA732"/>
	</radialGradient>
	<path class="st11" d="M30.45,23.14c0.86,0.14,1.7,0.46,2.44,0.92c1.95-2.38,2.15-4.8,1.27-7.06
		C32.01,18.12,30.57,20.07,30.45,23.14z"/>
	
		<radialGradient id="SVGID_4_" cx="3207.905" cy="-2129.7815" r="38.4228" gradientTransform="matrix(-0.4414 -0.6303 0.6303 -0.4414 2806.7539 1093.101)" gradientUnits="userSpaceOnUse">
		<stop  offset="0" style="stop-color:#55BAB5"/>
		<stop  offset="0.5149" style="stop-color:#54B9B5"/>
		<stop  offset="0.7003" style="stop-color:#52B6B2"/>
		<stop  offset="0.8325" style="stop-color:#4EAFAD"/>
		<stop  offset="0.9387" style="stop-color:#48A5A6"/>
		<stop  offset="1" style="stop-color:#439DA0"/>
	</radialGradient>
	<path class="st12" d="M30.45,23.14c0.86,0.14,1.7,0.46,2.44,0.92c1.95-2.38,2.15-4.8,1.27-7.06
		C32.01,18.12,30.57,20.07,30.45,23.14z"/>
	
		<radialGradient id="SVGID_5_" cx="2790.6536" cy="2493.603" r="38.4228" gradientTransform="matrix(-0.3252 0.6974 -0.6974 -0.3252 2658.0354 -1119.0626)" gradientUnits="userSpaceOnUse">
		<stop  offset="0" style="stop-color:#B31F84"/>
		<stop  offset="0.5156" style="stop-color:#B11E82"/>
		<stop  offset="0.7013" style="stop-color:#AD1C7F"/>
		<stop  offset="0.8336" style="stop-color:#A6197A"/>
		<stop  offset="0.9399" style="stop-color:#9D1574"/>
		<stop  offset="1" style="stop-color:#96116E"/>
	</radialGradient>
	<path class="st13" d="M30.87,25.71c-2.72,1.44-5.13,1.16-7.18-0.14c-4.07,5.06-3.32,16.31-0.8,21.29
		c5.18-2.08,13.18-10.02,13.46-16.51C33.96,29.97,31.97,28.59,30.87,25.71z"/>
	
		<radialGradient id="SVGID_6_" cx="-958.2306" cy="-111.4005" r="38.4228" gradientTransform="matrix(0.7666 -0.0671 0.0671 0.7666 776.4106 66.7709)" gradientUnits="userSpaceOnUse">
		<stop  offset="0" style="stop-color:#93D500"/>
		<stop  offset="0.014" style="stop-color:#93D502"/>
		<stop  offset="0.019" style="stop-color:#93D309"/>
		<stop  offset="0.0226" style="stop-color:#94D114"/>
		<stop  offset="0.0255" style="stop-color:#94CE25"/>
		<stop  offset="0.028" style="stop-color:#95C93B"/>
		<stop  offset="0.0282" style="stop-color:#95C93D"/>
		<stop  offset="0.5199" style="stop-color:#93C63C"/>
		<stop  offset="0.7029" style="stop-color:#8FC13B"/>
		<stop  offset="0.8343" style="stop-color:#89BA38"/>
		<stop  offset="0.9404" style="stop-color:#81B035"/>
		<stop  offset="1" style="stop-color:#7AA732"/>
	</radialGradient>
	<path class="st14" d="M32.89,24.06c-0.55,0.68-1.24,1.24-2.01,1.65c1.09,2.88,3.08,4.26,5.48,4.64
		C36.46,27.92,35.49,25.7,32.89,24.06z"/>
	
		<radialGradient id="SVGID_7_" cx="2790.6536" cy="2493.603" r="38.4228" gradientTransform="matrix(-0.3252 0.6974 -0.6974 -0.3252 2658.0354 -1119.0626)" gradientUnits="userSpaceOnUse">
		<stop  offset="0" style="stop-color:#AC6787"/>
		<stop  offset="0.5918" style="stop-color:#AB6687"/>
		<stop  offset="0.8047" style="stop-color:#A76484"/>
		<stop  offset="0.9562" style="stop-color:#A1607F"/>
		<stop  offset="1" style="stop-color:#9E5E7D"/>
	</radialGradient>
	<path class="st15" d="M32.89,24.06c-0.55,0.68-1.24,1.24-2.01,1.65c1.09,2.88,3.08,4.26,5.48,4.64
		C36.46,27.92,35.49,25.7,32.89,24.06z"/>
	
		<radialGradient id="SVGID_8_" cx="3207.905" cy="-2129.7815" r="38.4228" gradientTransform="matrix(-0.4414 -0.6303 0.6303 -0.4414 2806.7539 1093.101)" gradientUnits="userSpaceOnUse">
		<stop  offset="0" style="stop-color:#1DB7D0"/>
		<stop  offset="0.5149" style="stop-color:#1DB5CE"/>
		<stop  offset="0.7003" style="stop-color:#1CB1C9"/>
		<stop  offset="0.8325" style="stop-color:#1CABC2"/>
		<stop  offset="0.9387" style="stop-color:#1BA2B7"/>
		<stop  offset="1" style="stop-color:#189AAF"/>
	</radialGradient>
	<path class="st16" d="M30.87,25.71c-0.31-0.82-0.45-1.7-0.42-2.57c-3.04-0.49-5.23,0.54-6.75,2.43
		C25.75,26.87,28.16,27.15,30.87,25.71z"/>
	
		<radialGradient id="SVGID_9_" cx="2790.6536" cy="2493.603" r="38.4228" gradientTransform="matrix(-0.3252 0.6974 -0.6974 -0.3252 2658.0354 -1119.0626)" gradientUnits="userSpaceOnUse">
		<stop  offset="0" style="stop-color:#6BA2C1"/>
		<stop  offset="0.5149" style="stop-color:#6AA1C0"/>
		<stop  offset="0.7003" style="stop-color:#689EBC"/>
		<stop  offset="0.8325" style="stop-color:#6498B5"/>
		<stop  offset="0.9387" style="stop-color:#5E8FAB"/>
		<stop  offset="1" style="stop-color:#5988A2"/>
	</radialGradient>
	<path class="st17" d="M30.87,25.71c-0.31-0.82-0.45-1.7-0.42-2.57c-3.04-0.49-5.23,0.54-6.75,2.43
		C25.75,26.87,28.16,27.15,30.87,25.71z"/>
	
		<radialGradient id="SVGID_10_" cx="-958.2306" cy="-111.4005" r="38.4228" gradientTransform="matrix(0.7666 -0.0671 0.0671 0.7666 776.4106 66.7709)" gradientUnits="userSpaceOnUse">
		<stop  offset="0" style="stop-color:#93D500"/>
		<stop  offset="0.014" style="stop-color:#93D502"/>
		<stop  offset="0.019" style="stop-color:#93D309"/>
		<stop  offset="0.0226" style="stop-color:#94D114"/>
		<stop  offset="0.0255" style="stop-color:#94CE25"/>
		<stop  offset="0.028" style="stop-color:#95C93B"/>
		<stop  offset="0.0282" style="stop-color:#95C93D"/>
		<stop  offset="0.5199" style="stop-color:#93C63C"/>
		<stop  offset="0.7029" style="stop-color:#8FC13B"/>
		<stop  offset="0.8343" style="stop-color:#89BA38"/>
		<stop  offset="0.9404" style="stop-color:#81B035"/>
		<stop  offset="1" style="stop-color:#7AA732"/>
	</radialGradient>
	<path class="st18" d="M30.87,25.71c0.77-0.41,1.46-0.97,2.01-1.65c-0.74-0.46-1.58-0.78-2.44-0.92
		C30.42,24.01,30.57,24.89,30.87,25.71z"/>
	
		<radialGradient id="SVGID_11_" cx="3207.905" cy="-2129.7815" r="38.4228" gradientTransform="matrix(-0.4414 -0.6303 0.6303 -0.4414 2806.7539 1093.101)" gradientUnits="userSpaceOnUse">
		<stop  offset="0" style="stop-color:#1DB7D0"/>
		<stop  offset="0.5149" style="stop-color:#1DB5CE"/>
		<stop  offset="0.7003" style="stop-color:#1CB1C9"/>
		<stop  offset="0.8325" style="stop-color:#1CABC2"/>
		<stop  offset="0.9387" style="stop-color:#1BA2B7"/>
		<stop  offset="1" style="stop-color:#189AAF"/>
	</radialGradient>
	<path class="st19" d="M30.87,25.71c0.77-0.41,1.46-0.97,2.01-1.65c-0.74-0.46-1.58-0.78-2.44-0.92
		C30.42,24.01,30.57,24.89,30.87,25.71z"/>
	
		<radialGradient id="SVGID_12_" cx="2790.6536" cy="2493.603" r="38.4228" gradientTransform="matrix(-0.3252 0.6974 -0.6974 -0.3252 2658.0354 -1119.0626)" gradientUnits="userSpaceOnUse">
		<stop  offset="0" style="stop-color:#679EB6"/>
		<stop  offset="0.5149" style="stop-color:#669DB5"/>
		<stop  offset="0.7003" style="stop-color:#649AB2"/>
		<stop  offset="0.8325" style="stop-color:#6094AB"/>
		<stop  offset="0.9387" style="stop-color:#5A8CA2"/>
		<stop  offset="1" style="stop-color:#55859A"/>
	</radialGradient>
	<path class="st20" d="M30.87,25.71c0.77-0.41,1.46-0.97,2.01-1.65c-0.74-0.46-1.58-0.78-2.44-0.92
		C30.42,24.01,30.57,24.89,30.87,25.71z"/>
</g>
</svg>
